<svg width="225px" height="46px" xmlns="http://www.w3.org/2000/svg" viewBox="0 0 224.02 45.4"><defs><style>.cls-1{fill:#e42049;}.cls-2{fill:#fff;}.cls-3{fill:#148936;}</style></defs><g id="Layer_2" data-name="Layer 2"><g id="Capa_1" data-name="Capa 1"><g id="Nuevo_símbolo_3" data-name="Nuevo símbolo 3"><g id="Nuevo_símbolo" data-name="Nuevo símbolo"><g id="Nuevo_símbolo_2" data-name="Nuevo símbolo 2"><path class="cls-1" d="M209,20.37a5.4,5.4,0,1,1,9.16,5.7l-.57.93a.31.31,0,0,1-.49.11L210.8,23.2c-.12-.07-.21-.05-.3.09a2.85,2.85,0,0,0,1.22,3.84,3,3,0,0,0,2.09.45.3.3,0,0,1,.39.21l.68,1.83c.07.23,0,.39-.29.42a5.82,5.82,0,0,1-4.12-.9,6,6,0,0,1-2.76-3.54,5,5,0,0,1,.62-4.18Zm2.76.95c-.1.12-.09.24.07.34l3.93,2.44c.16.1.26.06.33-.09a2.37,2.37,0,0,0-.83-3.35A2.42,2.42,0,0,0,211.75,21.32Z"/><path class="cls-1" d="M199.71,14.63V13.36a.29.29,0,0,0-.32-.33h-2.2a.3.3,0,0,0-.33.33v1.27Z"/><path class="cls-1" d="M207.19,29l-3.39-5.25c-.09-.12-.07-.21,0-.31a6.7,6.7,0,0,0,2.69-4.67l.07-.47a.32.32,0,0,0-.33-.35H204c-.21,0-.3.09-.33.3l0,.38A4.26,4.26,0,0,1,200,22.7c-.18,0-.28,0-.28-.23V15.83h-2.85V29.2a.3.3,0,0,0,.33.33h2.2a.29.29,0,0,0,.32-.33V25.13c0-.16.07-.23.21-.23a4.57,4.57,0,0,0,1.22-.21.26.26,0,0,1,.35.14l2.64,4.51a.29.29,0,0,0,.3.19h2.46A.34.34,0,0,0,207.19,29Z"/><path class="cls-1" d="M167.91,14.27a.33.33,0,0,1,.07.47l-1.29,1.68c-.16.21-.33.23-.49,0a4,4,0,0,0-2.52-.92c-1.57,0-2.48.77-2.48,1.87v.07a1.62,1.62,0,0,0,.75,1.43,10,10,0,0,0,2.69.93c3.2.73,4.74,2.06,4.74,4.7v.09a4.69,4.69,0,0,1-1.64,3.7,6.55,6.55,0,0,1-4.48,1.42A9.28,9.28,0,0,1,157.9,28a.28.28,0,0,1-.06-.49l1.3-1.73a.36.36,0,0,1,.47,0,6.35,6.35,0,0,0,3.65,1.33c2.08,0,3.13-.89,3.13-2.29v-.09a2,2,0,0,0-.59-1.45,2.11,2.11,0,0,0-.79-.44,5.34,5.34,0,0,0-1-.36l-1.34-.35a8.73,8.73,0,0,1-2.43-.84c-1.21-.63-1.87-1.68-2-3.69v-.09a4.25,4.25,0,0,1,1.49-3.37,5.77,5.77,0,0,1,3.91-1.28A6.82,6.82,0,0,1,167.91,14.27Z"/><path class="cls-1" d="M183.45,23.17a5.48,5.48,0,0,1,1.38-3.9,4.33,4.33,0,0,1,3.36-1.5,4.49,4.49,0,0,1,3.18,1.31c.07.07.21.05.23,0l.19-.82a.34.34,0,0,1,.37-.26H194a.33.33,0,0,1,.32.33V29.2a.33.33,0,0,1-.32.33h-2.22a.3.3,0,0,1-.33-.33v-.65a.15.15,0,0,0-.26-.1,4.46,4.46,0,0,1-6.45-.23,5.75,5.75,0,0,1-1.28-3.88Zm2.8,1.1c0,1.87,1.05,3.06,2.74,3.06a3.25,3.25,0,0,0,2.15-.82.74.74,0,0,0,.3-.63V21.63a.78.78,0,0,0-.3-.65,3.15,3.15,0,0,0-2.15-.8c-1.69,0-2.74,1.19-2.74,3.06Z"/><path class="cls-1" d="M174.12,14.63V13.36a.29.29,0,0,0-.32-.33h-2.2a.3.3,0,0,0-.33.33v1.27Z"/><path class="cls-1" d="M177.44,17.77a3.93,3.93,0,0,0-3,1.2c-.11.11-.28.07-.28-.1v-3h-2.85V29.2a.3.3,0,0,0,.33.33h2.2a.29.29,0,0,0,.32-.33V21.75a.83.83,0,0,1,.33-.68,3.14,3.14,0,0,1,2.1-.8c1.38,0,2.06.73,2.06,2.18V29.2a.31.31,0,0,0,.35.33h2.2a.3.3,0,0,0,.33-.33V22.31C181.49,19.43,180,17.77,177.44,17.77Z"/><path class="cls-2" d="M46.74,13.36a.35.35,0,0,1,.35-.33H54a4.64,4.64,0,0,1,3.46,1.45,4.93,4.93,0,0,1,1.4,3.57v.19a4.58,4.58,0,0,1-1,3A5.47,5.47,0,0,1,55.38,23c-.16.05-.23.14-.18.31.53,2.33,2,3.76,4.18,3.87a.32.32,0,0,1,.3.36v1.84c0,.24-.11.35-.32.35A6.76,6.76,0,0,1,54.78,28a7.72,7.72,0,0,1-2.37-4.51.27.27,0,0,0-.3-.25H49.87c-.17,0-.24.09-.24.25V29.2a.33.33,0,0,1-.32.33H47.09c-.24,0-.35-.12-.35-.33Zm2.89,7.43c0,.16.07.26.24.26h3.22a2.47,2.47,0,0,0,2.64-2.65v-.16A2.47,2.47,0,0,0,53,15.6H49.87c-.17,0-.24.09-.24.26Z"/><path class="cls-2" d="M60.48,23.17a5.53,5.53,0,0,1,1.38-3.9,4.33,4.33,0,0,1,3.36-1.5,4.49,4.49,0,0,1,3.18,1.31c.07.07.21.05.23,0l.19-.82A.35.35,0,0,1,69.2,18H71a.34.34,0,0,1,.33.33V29.2a.34.34,0,0,1-.33.33H68.8a.3.3,0,0,1-.33-.33v-.65a.15.15,0,0,0-.26-.1,4.46,4.46,0,0,1-6.45-.23,5.75,5.75,0,0,1-1.28-3.88Zm2.8,1.1c0,1.87,1,3.06,2.74,3.06a3.25,3.25,0,0,0,2.15-.82.74.74,0,0,0,.3-.63V21.63a.78.78,0,0,0-.3-.65,3.14,3.14,0,0,0-2.15-.8c-1.69,0-2.74,1.19-2.74,3.06Z"/><path class="cls-2" d="M81.09,19.34l-1,1.35a.32.32,0,0,1-.49,0A2.82,2.82,0,0,0,78,20.13c-.82,0-1.33.49-1.33,1.05v.1c0,.75.51,1,2,1.33,2.25.47,3.55,1.19,3.55,3.34v.1A3.51,3.51,0,0,1,81,28.71a4.52,4.52,0,0,1-3.23,1.08,6.54,6.54,0,0,1-4.07-1.36.3.3,0,0,1,0-.47l1.07-1.4a.32.32,0,0,1,.47-.07,4,4,0,0,0,2.45.91c1.15,0,1.71-.54,1.71-1.26v-.07c0-.82-.51-1.1-2-1.45-2.25-.47-3.53-1.28-3.53-3.34v-.1a3.08,3.08,0,0,1,1.14-2.47,4.33,4.33,0,0,1,2.9-1A5.06,5.06,0,0,1,81,18.87C81.21,19,81.23,19.13,81.09,19.34Z"/><path class="cls-2" d="M122,18.29a.29.29,0,0,1,.32-.33h1.87c.17,0,.28.07.31.21l.18.75a.16.16,0,0,0,.26,0,3.52,3.52,0,0,1,2.76-1.17,3.81,3.81,0,0,1,2.12.63.33.33,0,0,1,.1.46l-1,1.55a.31.31,0,0,1-.47.09,2.37,2.37,0,0,0-1.19-.3,3.05,3.05,0,0,0-2.13.82.86.86,0,0,0-.3.72V29.2a.3.3,0,0,1-.33.33h-2.2a.29.29,0,0,1-.32-.33Z"/><path class="cls-2" d="M131.24,18.29a.3.3,0,0,1,.33-.33h1.87c.16,0,.28.07.3.21l.19.75a.15.15,0,0,0,.25,0,3.55,3.55,0,0,1,2.76-1.17,3.85,3.85,0,0,1,2.13.63.33.33,0,0,1,.09.46l-1,1.55a.31.31,0,0,1-.47.09,2.37,2.37,0,0,0-1.19-.3,3.07,3.07,0,0,0-2.13.82.86.86,0,0,0-.3.72V29.2a.3.3,0,0,1-.33.33h-2.19a.3.3,0,0,1-.33-.33Z"/><path class="cls-2" d="M109.56,26a5.23,5.23,0,0,1-.73-4.12,5.32,5.32,0,0,1,2.57-3.34,5.21,5.21,0,0,1,4.07-.73,5.28,5.28,0,0,1,3.31,2.58l.57.94a.3.3,0,0,1-.11.48l-6.33,3.85c-.12.07-.14.17-.06.31a2.84,2.84,0,0,0,4,.64A3,3,0,0,0,118.17,25a.29.29,0,0,1,.36-.25l1.94.22c.25,0,.34.2.25.45a5.83,5.83,0,0,1-2.67,3.26,6,6,0,0,1-4.39.87,5,5,0,0,1-3.46-2.44Zm2.1-2c.06.15.17.19.33.1l4-2.41a.2.2,0,0,0,.07-.34,2.38,2.38,0,0,0-3.37-.77A2.42,2.42,0,0,0,111.66,24Z"/><path class="cls-2" d="M106.05,19.29a4.6,4.6,0,0,0-3.39-1.52,4,4,0,0,0-2.9,1.12.15.15,0,0,1-.25-.11v-3H96.65V29.2a.3.3,0,0,0,.33.33h1.87c.16,0,.28-.07.3-.21l.19-.84c0-.17.17-.17.26-.07a4.23,4.23,0,0,0,3.08,1.31,4.61,4.61,0,0,0,3.42-1.43,5.46,5.46,0,0,0,1.4-3.95V23.17A5.44,5.44,0,0,0,106.05,19.29Zm-1.36,5c0,1.87-1,3.06-2.73,3.06a3.23,3.23,0,0,1-2.15-.82.74.74,0,0,1-.3-.63V21.63a.74.74,0,0,1,.3-.63,3,3,0,0,1,2.15-.82c1.68,0,2.73,1.19,2.73,3.06Z"/><path class="cls-2" d="M99.51,14.63V13.36a.3.3,0,0,0-.33-.33H97a.3.3,0,0,0-.33.33v1.27Z"/><path class="cls-2" d="M83.73,32.89v1.27a.29.29,0,0,0,.33.32h2.19a.29.29,0,0,0,.33-.32V32.89Z"/><path class="cls-2" d="M93.13,19.29a4.6,4.6,0,0,0-3.39-1.52A4.23,4.23,0,0,0,86.68,19c-.12.1-.26,0-.28,0l-.19-.8a.25.25,0,0,0-.28-.21H84.06a.3.3,0,0,0-.33.33v13.4h2.85v-3c0-.12.14-.19.26-.09a4.26,4.26,0,0,0,2.92,1.1,4.58,4.58,0,0,0,3.41-1.43,5.42,5.42,0,0,0,1.4-3.95V23.17A5.47,5.47,0,0,0,93.13,19.29Zm-1.36,5c0,1.87-1,3.06-2.73,3.06a3.27,3.27,0,0,1-2.16-.82.77.77,0,0,1-.3-.63V21.63a.77.77,0,0,1,.3-.63A3.06,3.06,0,0,1,89,20.18c1.68,0,2.73,1.19,2.73,3.06Z"/><path class="cls-2" d="M142.73,32.89l-.51,1.17a.31.31,0,0,0,.28.42h1.94a.42.42,0,0,0,.43-.28l.56-1.31Z"/><path class="cls-2" d="M151.48,18H149.4a.44.44,0,0,0-.42.28l-3,7.2c-.07.16-.21.16-.28,0l-3-7.2a.4.4,0,0,0-.4-.28H140.1a.3.3,0,0,0-.26.42l4.56,10.21a.41.41,0,0,1,0,.4l-1.16,2.7H146l5.79-13.33A.28.28,0,0,0,151.48,18Z"/><path class="cls-1" d="M17.19,29.14a7.06,7.06,0,1,1,7.06-7.06A7.07,7.07,0,0,1,17.19,29.14Zm0-11.51a4.45,4.45,0,1,0,4.45,4.45A4.46,4.46,0,0,0,17.19,17.63Z"/><path class="cls-1" d="M13.22,33.21a1.23,1.23,0,0,1-.49-.1,11.9,11.9,0,0,1-1.24-21.47,1.31,1.31,0,1,1,1.26,2.29,9.29,9.29,0,0,0,1,16.76,1.31,1.31,0,0,1-.49,2.52Z"/><path class="cls-1" d="M8.63,36.77a1.29,1.29,0,0,1-.7-.2A17.19,17.19,0,0,1,7.38,8a1.3,1.3,0,0,1,1.49,2.14,14.58,14.58,0,0,0,.47,24.26,1.3,1.3,0,0,1-.71,2.4Z"/><path class="cls-1" d="M21.31,33.21a1.31,1.31,0,0,1-.49-2.52,9.28,9.28,0,0,0,1-16.76A1.3,1.3,0,0,1,23,11.64,11.89,11.89,0,0,1,21.8,33.11,1.23,1.23,0,0,1,21.31,33.21Z"/><path class="cls-1" d="M25.9,36.77a1.3,1.3,0,0,1-.71-2.4,14.58,14.58,0,0,0,.47-24.26A1.31,1.31,0,0,1,27.16,8a17.2,17.2,0,0,1-.56,28.6A1.29,1.29,0,0,1,25.9,36.77Z"/><path class="cls-1" d="M19.69,22.08a2.5,2.5,0,1,1-2.5-2.5A2.5,2.5,0,0,1,19.69,22.08Z"/><path class="cls-3" d="M22.29,3.87a.57.57,0,0,0-.24-.45.62.62,0,0,0-.51-.1A6.32,6.32,0,0,0,17.8,6.08a8.4,8.4,0,0,0-4.87-6,.59.59,0,0,0-.52,0,.57.57,0,0,0-.31.41A8.52,8.52,0,0,0,17,10.1a.9.9,0,0,0,.27.07,1,1,0,0,0,.24,0l.18,0A6.14,6.14,0,0,0,22.29,3.87ZM16.74,8.64a7.29,7.29,0,0,1-3.58-7.13A7.32,7.32,0,0,1,16.74,8.64Zm1.39,0a5,5,0,0,1,2.94-3.93A4.93,4.93,0,0,1,18.13,8.69Z"/><path class="cls-2" d="M217.88,14.14a3.36,3.36,0,0,1,.4-1.63,3,3,0,0,1,4.22-1.18,3.1,3.1,0,0,1,1.12,1.18,3.36,3.36,0,0,1,.4,1.63,3.41,3.41,0,0,1-.39,1.6,3.14,3.14,0,0,1-1.1,1.19,2.86,2.86,0,0,1-1.58.46,2.9,2.9,0,0,1-1.57-.45,3.05,3.05,0,0,1-1.11-1.2A3.38,3.38,0,0,1,217.88,14.14Zm.49,0a2.82,2.82,0,0,0,.35,1.37,2.59,2.59,0,0,0,.94,1,2.48,2.48,0,0,0,2.59,0,2.53,2.53,0,0,0,.93-1,2.93,2.93,0,0,0,0-2.74,2.53,2.53,0,0,0-.93-1,2.51,2.51,0,0,0-2.59,0,2.56,2.56,0,0,0-.94,1A2.79,2.79,0,0,0,218.37,14.14Zm1.94.32v1.47h-.61V12.25h1.2a1.66,1.66,0,0,1,1,.28,1,1,0,0,1,.36.83.88.88,0,0,1-.55.81.87.87,0,0,1,.53.89v.26a1.39,1.39,0,0,0,.08.54v.07h-.63a1.79,1.79,0,0,1-.06-.56,3.55,3.55,0,0,0,0-.48c0-.27-.23-.42-.56-.43Zm0-.55H221a.9.9,0,0,0,.5-.15.45.45,0,0,0,.19-.38.52.52,0,0,0-.17-.45,1.06,1.06,0,0,0-.6-.13h-.6Z"/><path class="cls-2" d="M48.85,43.07,49,44l.2-.85,1.4-4.94h.78l1.37,4.94.19.86.16-1,1.09-4.85h.94L53.41,45.3h-.85L51.1,40.14,51,39.61l-.12.53L49.36,45.3h-.85L46.8,38.22h.93Z"/><path class="cls-2" d="M59.18,45.3a1.9,1.9,0,0,1-.12-.55,2,2,0,0,1-1.5.65A1.89,1.89,0,0,1,56.28,45a1.41,1.41,0,0,1-.49-1.12,1.47,1.47,0,0,1,.62-1.27,3,3,0,0,1,1.76-.46H59V41.7a1,1,0,0,0-.28-.75,1.11,1.11,0,0,0-.83-.28,1.34,1.34,0,0,0-.81.24.74.74,0,0,0-.32.59h-.91a1.3,1.3,0,0,1,.28-.76,2,2,0,0,1,.76-.58A2.59,2.59,0,0,1,58,40a2.11,2.11,0,0,1,1.43.45,1.63,1.63,0,0,1,.53,1.25v2.42a2.78,2.78,0,0,0,.19,1.15v.08Zm-1.49-.68a1.63,1.63,0,0,0,.8-.22,1.31,1.31,0,0,0,.55-.57V42.75h-.7c-1.1,0-1.66.32-1.66,1a.82.82,0,0,0,.29.66A1.06,1.06,0,0,0,57.69,44.62Z"/><path class="cls-2" d="M62.65,38.77V40h1v.7h-1V44a.79.79,0,0,0,.13.48.58.58,0,0,0,.45.16,2.16,2.16,0,0,0,.43-.06v.72a2.45,2.45,0,0,1-.69.1,1.13,1.13,0,0,1-.91-.36,1.56,1.56,0,0,1-.31-1V40.74h-1V40h1V38.77Z"/><path class="cls-2" d="M66.87,44.67a1.27,1.27,0,0,0,.84-.3,1,1,0,0,0,.4-.73H69a1.62,1.62,0,0,1-.31.87,2,2,0,0,1-.76.65,2.25,2.25,0,0,1-1,.24,2.18,2.18,0,0,1-1.71-.72,2.85,2.85,0,0,1-.63-2v-.15a3.17,3.17,0,0,1,.28-1.37,2.2,2.2,0,0,1,.81-.92A2.31,2.31,0,0,1,66.87,40a2.08,2.08,0,0,1,1.47.53A1.86,1.86,0,0,1,69,41.85h-.85a1.22,1.22,0,0,0-.38-.84,1.2,1.2,0,0,0-.86-.33,1.25,1.25,0,0,0-1.06.5,2.31,2.31,0,0,0-.38,1.42v.17a2.3,2.3,0,0,0,.37,1.41A1.29,1.29,0,0,0,66.87,44.67Z"/><path class="cls-2" d="M71,40.68A1.91,1.91,0,0,1,72.51,40c1.11,0,1.67.62,1.68,1.88V45.3h-.9V41.82A1.19,1.19,0,0,0,73,41a1,1,0,0,0-.79-.27,1.34,1.34,0,0,0-.77.23,1.71,1.71,0,0,0-.52.61V45.3h-.9V37.84H71Z"/><path class="cls-2" d="M79.38,38.77V40h1v.7h-1V44a.79.79,0,0,0,.13.48.58.58,0,0,0,.45.16,2.07,2.07,0,0,0,.43-.06v.72a2.45,2.45,0,0,1-.69.1,1.13,1.13,0,0,1-.91-.36,1.61,1.61,0,0,1-.31-1V40.74h-1V40h1V38.77Z"/><path class="cls-2" d="M82.39,40.68A1.91,1.91,0,0,1,84,40c1.11,0,1.67.62,1.68,1.88V45.3h-.9V41.82a1.19,1.19,0,0,0-.26-.84,1,1,0,0,0-.79-.27,1.34,1.34,0,0,0-.77.23,1.71,1.71,0,0,0-.52.61V45.3H81.5V37.84h.89Z"/><path class="cls-2" d="M89.24,45.4a2.3,2.3,0,0,1-1.74-.7,2.61,2.61,0,0,1-.67-1.88v-.17a3.12,3.12,0,0,1,.3-1.39,2.34,2.34,0,0,1,.84-1A2.07,2.07,0,0,1,89.13,40a2,2,0,0,1,1.59.67,2.93,2.93,0,0,1,.57,1.94v.37H87.73a1.86,1.86,0,0,0,.45,1.26,1.43,1.43,0,0,0,1.11.48,1.57,1.57,0,0,0,.81-.2,2.15,2.15,0,0,0,.58-.51l.54.42A2.2,2.2,0,0,1,89.24,45.4Zm-.11-4.72a1.2,1.2,0,0,0-.91.4,1.92,1.92,0,0,0-.46,1.11h2.63v-.07A1.69,1.69,0,0,0,90,41.06,1.12,1.12,0,0,0,89.13,40.68Z"/><path class="cls-2" d="M99.1,42H96v2.51H99.6v.76H95.1V38.22h4.45V39H96v2.28H99.1Z"/><path class="cls-2" d="M103.94,45.3a1.9,1.9,0,0,1-.12-.55,2,2,0,0,1-1.5.65A1.89,1.89,0,0,1,101,45a1.42,1.42,0,0,1-.5-1.12,1.48,1.48,0,0,1,.63-1.27,3,3,0,0,1,1.76-.46h.87V41.7a1,1,0,0,0-.28-.75,1.11,1.11,0,0,0-.83-.28,1.34,1.34,0,0,0-.81.24.72.72,0,0,0-.32.59h-.91a1.3,1.3,0,0,1,.28-.76,2,2,0,0,1,.76-.58,2.59,2.59,0,0,1,1-.21,2.11,2.11,0,0,1,1.43.45,1.63,1.63,0,0,1,.53,1.25v2.42a2.78,2.78,0,0,0,.19,1.15v.08Zm-1.49-.68a1.63,1.63,0,0,0,.8-.22,1.31,1.31,0,0,0,.55-.57V42.75h-.7c-1.1,0-1.66.32-1.66,1a.82.82,0,0,0,.29.66A1.06,1.06,0,0,0,102.45,44.62Z"/><path class="cls-2" d="M108.73,40.85a2.94,2.94,0,0,0-.44,0,1.18,1.18,0,0,0-1.2.75V45.3h-.9V40h.88v.61a1.4,1.4,0,0,1,1.25-.7,1,1,0,0,1,.4.06Z"/><path class="cls-2" d="M111.1,38.77V40h1v.7h-1V44a.79.79,0,0,0,.13.48.58.58,0,0,0,.45.16,2.07,2.07,0,0,0,.43-.06v.72a2.45,2.45,0,0,1-.69.1,1.13,1.13,0,0,1-.91-.36,1.61,1.61,0,0,1-.31-1V40.74h-1V40h1V38.77Z"/><path class="cls-2" d="M114.11,40.68a1.91,1.91,0,0,1,1.56-.73c1.11,0,1.67.62,1.68,1.88V45.3h-.9V41.82a1.19,1.19,0,0,0-.26-.84,1,1,0,0,0-.79-.27,1.34,1.34,0,0,0-.77.23,1.71,1.71,0,0,0-.52.61V45.3h-.89V37.84h.89Z"/><path class="cls-2" d="M122.67,38.22,125,44l2.32-5.78h1.21V45.3h-.93V42.55l.08-3-2.32,5.73h-.72l-2.31-5.71.09,3V45.3h-.94V38.22Z"/><path class="cls-2" d="M129.86,42.62a3.18,3.18,0,0,1,.3-1.39,2.24,2.24,0,0,1,.85-.95,2.31,2.31,0,0,1,1.23-.33,2.2,2.2,0,0,1,1.74.74,2.88,2.88,0,0,1,.67,2v.06a3.11,3.11,0,0,1-.3,1.38,2.22,2.22,0,0,1-.84,1,2.29,2.29,0,0,1-1.26.34,2.22,2.22,0,0,1-1.73-.74,2.88,2.88,0,0,1-.66-2Zm.9.11a2.29,2.29,0,0,0,.41,1.41,1.37,1.37,0,0,0,2.17,0,2.46,2.46,0,0,0,.41-1.51,2.28,2.28,0,0,0-.41-1.4,1.32,1.32,0,0,0-1.1-.54,1.29,1.29,0,0,0-1.07.53A2.48,2.48,0,0,0,130.76,42.73Z"/><path class="cls-2" d="M137.52,44.08l1.3-4h.92l-1.89,5.26h-.68L135.26,40h.92Z"/><path class="cls-2" d="M142.8,45.4a2.3,2.3,0,0,1-1.74-.7,2.61,2.61,0,0,1-.67-1.88v-.17a3.12,3.12,0,0,1,.3-1.39,2.34,2.34,0,0,1,.84-1,2.07,2.07,0,0,1,1.16-.34,2,2,0,0,1,1.6.67,3,3,0,0,1,.56,1.94v.37h-3.56a1.82,1.82,0,0,0,.46,1.26,1.41,1.41,0,0,0,1.1.48,1.57,1.57,0,0,0,.81-.2,2.15,2.15,0,0,0,.58-.51l.55.42A2.22,2.22,0,0,1,142.8,45.4Zm-.11-4.72a1.2,1.2,0,0,0-.91.4,1.92,1.92,0,0,0-.46,1.11H144v-.07a1.63,1.63,0,0,0-.37-1.06A1.12,1.12,0,0,0,142.69,40.68Z"/></g></g></g></g></g></svg>