<?xml version="1.0" standalone="no"?>
<!DOCTYPE svg PUBLIC "-//W3C//DTD SVG 20010904//EN"
 "http://www.w3.org/TR/2001/REC-SVG-20010904/DTD/svg10.dtd">
<svg version="1.0" xmlns="http://www.w3.org/2000/svg"
 width="1462.000000pt" height="633.000000pt" viewBox="0 0 1462.000000 633.000000"
 preserveAspectRatio="xMidYMid meet">

<g transform="translate(0.000000,633.000000) scale(0.100000,-0.100000)"
fill="#000000" stroke="none">
<path d="M0 3165 l0 -3165 7310 0 7310 0 0 3165 0 3165 -7310 0 -7310 0 0
-3165z m2295 2545 c4 -7 -3 -8 -22 -4 -38 9 -42 14 -10 14 14 0 29 -5 32 -10z
m309 -159 c-3 -3 -15 6 -27 18 l-22 24 27 -19 c14 -10 24 -21 22 -23z m31 -29
c-3 -3 -11 0 -18 7 -9 10 -8 11 6 5 10 -3 15 -9 12 -12z m868 -9 c-7 -2 -19
-2 -25 0 -7 3 -2 5 12 5 14 0 19 -2 13 -5z m-842 -20 c13 -16 12 -17 -3 -4
-10 7 -18 15 -18 17 0 8 8 3 21 -13z m747 10 c-10 -2 -28 -2 -40 0 -13 2 -5 4
17 4 22 1 32 -1 23 -4z m169 -65 c-3 -7 -5 -2 -5 12 0 14 2 19 5 13 2 -7 2
-19 0 -25z m-352 12 c-3 -5 -14 -10 -23 -9 -14 0 -13 2 3 9 27 11 27 11 20 0z
m-675 -110 c6 -11 8 -20 6 -20 -3 0 -10 9 -16 20 -6 11 -8 20 -6 20 3 0 10 -9
16 -20z m1017 -2 c-3 -8 -6 -5 -6 6 -1 11 2 17 5 13 3 -3 4 -12 1 -19z m-1420
-20 c-3 -8 -6 -5 -6 6 -1 11 2 17 5 13 3 -3 4 -12 1 -19z m640 -40 c-3 -8 -6
-5 -6 6 -1 11 2 17 5 13 3 -3 4 -12 1 -19z m174 -51 c-10 -9 -11 -8 -5 6 3 10
9 15 12 12 3 -3 0 -11 -7 -18z m-144 -19 c-3 -8 -6 -5 -6 6 -1 11 2 17 5 13 3
-3 4 -12 1 -19z m513 2 c0 -5 -5 -10 -11 -10 -5 0 -7 5 -4 10 3 6 8 10 11 10
2 0 4 -4 4 -10z m-1110 -25 c14 -19 14 -19 -2 -6 -10 7 -18 18 -18 24 0 6 1 8
3 6 1 -2 9 -13 17 -24z m607 -17 c-3 -8 -6 -5 -6 6 -1 11 2 17 5 13 3 -3 4
-12 1 -19z m483 18 c0 -2 -8 -10 -17 -17 -16 -13 -17 -12 -4 4 13 16 21 21 21
13z m-463 -68 c-3 -7 -5 -2 -5 12 0 14 2 19 5 13 2 -7 2 -19 0 -25z m423 28
c0 -2 -8 -10 -17 -17 -16 -13 -17 -12 -4 4 13 16 21 21 21 13z m-603 -62 c-3
-3 -12 -4 -19 -1 -8 3 -5 6 6 6 11 1 17 -2 13 -5z m366 -9 c-3 -9 -8 -14 -10
-11 -3 3 -2 9 2 15 9 16 15 13 8 -4z m368 -34 c-12 -12 -21 -18 -21 -14 0 10
33 44 37 39 3 -2 -5 -14 -16 -25z m-318 -18 c-7 -2 -21 -2 -30 0 -10 3 -4 5
12 5 17 0 24 -2 18 -5z m-578 -61 c-3 -3 -11 0 -18 7 -9 10 -8 11 6 5 10 -3
15 -9 12 -12z m48 -9 c-7 -2 -19 -2 -25 0 -7 3 -2 5 12 5 14 0 19 -2 13 -5z
m712 -23 c-3 -5 -12 -10 -18 -10 -7 0 -6 4 3 10 19 12 23 12 15 0z m-552 -7
c-13 -2 -35 -2 -50 0 -16 2 -5 4 22 4 28 0 40 -2 28 -4z m6525 -243 c-2 -132
0 -240 4 -240 4 0 13 8 20 18 41 57 166 112 252 112 83 0 194 -50 261 -117 88
-88 131 -216 122 -365 -6 -100 -22 -153 -73 -234 -65 -104 -195 -174 -324
-174 -86 0 -212 58 -240 110 -19 35 -30 22 -30 -35 l0 -55 -100 0 -100 0 0
610 0 610 105 0 106 0 -3 -240z m-3318 206 c107 -45 191 -134 233 -246 24 -64
23 -199 -2 -266 -34 -93 -73 -138 -190 -220 -1 -2 40 -74 92 -161 114 -192
167 -283 167 -289 0 -2 -57 -4 -127 -4 l-128 1 -84 147 c-46 81 -100 175 -119
210 l-36 62 -93 0 -93 0 0 -210 0 -210 -110 0 -110 0 0 598 c0 329 3 602 7
606 4 4 129 6 278 4 237 -3 276 -6 315 -22z m-3143 -138 c-2 -29 -3 -8 -3 47
0 55 1 79 3 53 2 -26 2 -71 0 -100z m306 125 c-13 -2 -33 -2 -45 0 -13 2 -3 4
22 4 25 0 35 -2 23 -4z m64 1 c-3 -3 -12 -4 -19 -1 -8 3 -5 6 6 6 11 1 17 -2
13 -5z m-210 -171 c-2 -32 -3 -6 -3 57 0 63 1 89 3 58 2 -32 2 -84 0 -115z
m800 -10 c-3 -10 -5 -2 -5 17 0 19 2 27 5 18 2 -10 2 -26 0 -35z m-1760 -5
c-3 -8 -6 -5 -6 6 -1 11 2 17 5 13 3 -3 4 -12 1 -19z m746 -55 c-7 -2 -21 -2
-30 0 -10 3 -4 5 12 5 17 0 24 -2 18 -5z m295 0 c-10 -2 -28 -2 -40 0 -13 2
-5 4 17 4 22 1 32 -1 23 -4z m155 -30 c-7 -2 -19 -2 -25 0 -7 3 -2 5 12 5 14
0 19 -2 13 -5z m114 -29 c-3 -3 -12 -4 -19 -1 -8 3 -5 6 6 6 11 1 17 -2 13 -5z
m3519 -20 c88 -28 126 -55 176 -124 53 -74 58 -108 58 -432 l0 -298 -95 0 -95
0 0 46 0 46 -46 -40 c-100 -89 -255 -97 -375 -21 -119 76 -159 254 -83 372 70
108 296 168 443 118 l53 -19 -4 47 c-10 99 -85 148 -209 138 -37 -3 -96 -17
-130 -31 -63 -25 -79 -26 -79 -2 0 8 -11 38 -24 68 l-24 54 21 15 c107 69 300
99 413 63z m835 -4 c60 -19 159 -80 159 -99 0 -4 -13 -27 -30 -49 -16 -23 -30
-46 -30 -51 0 -18 -21 -23 -38 -8 -40 34 -85 48 -159 49 -66 1 -77 -2 -98 -23
-36 -38 -39 -63 -11 -96 25 -29 36 -34 191 -78 118 -33 197 -112 208 -208 14
-116 -32 -209 -133 -266 -37 -21 -128 -40 -190 -40 -106 -1 -249 48 -297 101
-18 21 -19 20 44 121 l24 38 32 -25 c58 -45 118 -66 185 -66 68 0 97 10 124
44 20 25 22 46 7 79 -14 31 -39 43 -167 78 -135 36 -171 61 -213 141 -27 52
-26 174 1 227 63 125 232 181 391 131z m952 1 c162 -56 266 -197 283 -385 20
-224 -109 -421 -311 -475 -113 -30 -256 13 -328 99 l-27 32 0 -226 0 -226
-105 0 -105 0 0 590 0 590 94 0 94 0 6 -45 c4 -25 5 -49 1 -54 -3 -5 -1 -12 5
-16 5 -3 24 10 41 29 83 96 225 130 352 87z m1955 3 c182 -52 282 -194 282
-401 l0 -93 -301 0 -301 0 7 -27 c10 -44 52 -110 83 -131 85 -59 243 -55 331
9 41 29 61 36 61 21 0 -4 20 -31 45 -59 l45 -51 -37 -31 c-89 -73 -198 -112
-318 -113 -253 -1 -417 171 -418 437 -1 103 19 182 64 262 86 150 284 226 457
177z m916 8 c2 -4 2 -52 -1 -105 l-6 -97 -56 0 c-71 -1 -138 -33 -166 -81 -18
-31 -20 -57 -25 -304 l-5 -270 -105 0 -105 0 0 420 0 420 95 0 95 0 3 -54 3
-54 42 48 c25 28 61 55 87 66 46 18 135 25 144 11z m634 -16 c2 -11 1 -57 -3
-103 l-7 -83 -59 0 c-62 0 -119 -21 -151 -56 -43 -50 -48 -85 -48 -350 l0
-254 -105 0 -105 0 2 423 3 422 95 0 95 0 3 -47 c2 -27 6 -48 9 -48 3 0 21 18
40 40 46 54 104 79 173 77 45 -2 55 -5 58 -21z m374 -121 c27 -66 68 -165 90
-220 23 -55 49 -119 60 -142 10 -23 18 -47 18 -52 0 -24 19 -9 25 19 4 16 11
32 16 35 5 4 9 13 9 22 0 8 6 29 14 46 8 18 31 82 51 142 21 61 51 147 67 193
l30 82 109 0 c62 0 109 -4 109 -10 0 -8 -4 -20 -35 -95 -7 -16 -27 -70 -45
-120 -18 -49 -37 -94 -42 -100 -4 -5 -8 -16 -8 -25 0 -8 -7 -28 -15 -44 -8
-15 -15 -33 -15 -40 -1 -6 -9 -29 -20 -51 -11 -22 -19 -44 -20 -49 0 -5 -14
-46 -31 -90 -17 -45 -45 -117 -62 -161 -16 -44 -33 -89 -37 -100 -75 -196
-157 -289 -268 -305 -63 -8 -165 5 -181 24 -6 7 -7 40 -3 81 l7 70 65 0 c44 0
74 5 91 16 25 17 89 125 89 151 0 11 -63 169 -100 253 -5 11 -25 61 -46 110
-46 113 -63 155 -74 180 -36 82 -103 255 -107 278 l-5 28 107 -3 107 -3 50
-120z m-10165 89 c-3 -3 -12 -4 -19 -1 -8 3 -5 6 6 6 11 1 17 -2 13 -5z m-856
-77 c-10 -9 -11 -8 -5 6 3 10 9 15 12 12 3 -3 0 -11 -7 -18z m1616 -13 c-3 -3
-12 -4 -19 -1 -8 3 -5 6 6 6 11 1 17 -2 13 -5z m-444 -11 c-7 -2 -19 -2 -25 0
-7 3 -2 5 12 5 14 0 19 -2 13 -5z m1671 -19 c3 -8 2 -12 -4 -9 -6 3 -10 10
-10 16 0 14 7 11 14 -7z m-150 -150 c3 -8 2 -12 -4 -9 -6 3 -10 10 -10 16 0
14 7 11 14 -7z m-570 -73 c-2 -3 -12 3 -22 13 -16 17 -16 18 5 5 12 -7 20 -15
17 -18z m923 -173 c-3 -7 -5 -2 -5 12 0 14 2 19 5 13 2 -7 2 -19 0 -25z
m-3295 -10 c-7 -7 -12 -8 -12 -2 0 14 12 26 19 19 2 -3 -1 -11 -7 -17z m-15
-40 c-3 -8 -6 -5 -6 6 -1 11 2 17 5 13 3 -3 4 -12 1 -19z m220 -10 c-3 -8 -6
-5 -6 6 -1 11 2 17 5 13 3 -3 4 -12 1 -19z m1850 6 c-3 -3 -12 -4 -19 -1 -8 3
-5 6 6 6 11 1 17 -2 13 -5z m1050 -16 c-3 -8 -6 -5 -6 6 -1 11 2 17 5 13 3 -3
4 -12 1 -19z m220 -20 c-3 -7 -5 -2 -5 12 0 14 2 19 5 13 2 -7 2 -19 0 -25z
m-2179 5 c-21 -2 -57 -2 -80 0 -24 2 -7 4 37 4 44 0 63 -2 43 -4z m1130 -85
l-2 -93 -3 87 -4 87 -52 4 -52 3 58 2 57 2 -2 -92z m839 60 c-3 -8 -6 -5 -6 6
-1 11 2 17 5 13 3 -3 4 -12 1 -19z m-2940 -30 c-3 -8 -6 -5 -6 6 -1 11 2 17 5
13 3 -3 4 -12 1 -19z m3180 -60 c-3 -8 -6 -5 -6 6 -1 11 2 17 5 13 3 -3 4 -12
1 -19z m-3210 -50 c-3 -7 -5 -2 -5 12 0 14 2 19 5 13 2 -7 2 -19 0 -25z m3030
-70 c-3 -7 -5 -2 -5 12 0 14 2 19 5 13 2 -7 2 -19 0 -25z m210 -50 c-2 -13 -4
-5 -4 17 -1 22 1 32 4 23 2 -10 2 -28 0 -40z m-480 -25 c-3 -10 -5 -2 -5 17 0
19 2 27 5 18 2 -10 2 -26 0 -35z m-2790 -10 c-3 -10 -5 -2 -5 17 0 19 2 27 5
18 2 -10 2 -26 0 -35z m480 -40 c-3 -10 -5 -4 -5 12 0 17 2 24 5 18 2 -7 2
-21 0 -30z m2120 -25 c-3 -7 -5 -2 -5 12 0 14 2 19 5 13 2 -7 2 -19 0 -25z
m680 -125 c-2 -27 -3 -5 -3 47 0 52 1 74 3 48 2 -27 2 -69 0 -95z m-187 62 c0
-8 -2 -15 -4 -15 -2 0 -6 7 -10 15 -3 8 -1 15 4 15 6 0 10 -7 10 -15z m-963
-60 c-4 -8 -12 -15 -19 -14 -10 0 -10 2 0 6 6 2 12 12 12 21 0 8 3 13 6 9 4
-3 4 -13 1 -22z m-694 -12 c-7 -2 -19 -2 -25 0 -7 3 -2 5 12 5 14 0 19 -2 13
-5z m-116 -29 c-3 -3 -12 -4 -19 -1 -8 3 -5 6 6 6 11 1 17 -2 13 -5z m750 0
c-3 -3 -12 -4 -19 -1 -8 3 -5 6 6 6 11 1 17 -2 13 -5z m-964 -31 c-7 -2 -19
-2 -25 0 -7 3 -2 5 12 5 14 0 19 -2 13 -5z m130 0 c-7 -2 -21 -2 -30 0 -10 3
-4 5 12 5 17 0 24 -2 18 -5z m-1236 -95 c-2 -18 -4 -6 -4 27 0 33 2 48 4 33 2
-15 2 -42 0 -60z m2793 -48 c0 -16 -4 -30 -8 -30 -5 0 -7 14 -4 30 2 17 6 30
8 30 2 0 4 -13 4 -30z m477 -32 c-2 -13 -4 -5 -4 17 -1 22 1 32 4 23 2 -10 2
-28 0 -40z m-1809 35 c-10 -2 -26 -2 -35 0 -10 3 -2 5 17 5 19 0 27 -2 18 -5z
m155 0 c-7 -2 -19 -2 -25 0 -7 3 -2 5 12 5 14 0 19 -2 13 -5z m-618 -13 c3 -5
2 -10 -4 -10 -5 0 -13 5 -16 10 -3 6 -2 10 4 10 5 0 13 -4 16 -10z m-968 -102
c-3 -7 -5 -2 -5 12 0 14 2 19 5 13 2 -7 2 -19 0 -25z m2730 -20 c-3 -8 -6 -5
-6 6 -1 11 2 17 5 13 3 -3 4 -12 1 -19z m475 -70 c-6 -6 -7 0 -4 19 5 21 7 23
10 9 2 -10 0 -22 -6 -28z m-1689 15 c-13 -2 -35 -2 -50 0 -16 2 -5 4 22 4 28
0 40 -2 28 -4z m1184 -35 c-3 -8 -6 -5 -6 6 -1 11 2 17 5 13 3 -3 4 -12 1 -19z
m-1354 5 c-7 -2 -19 -2 -25 0 -7 3 -2 5 12 5 14 0 19 -2 13 -5z m340 0 c-7 -2
-19 -2 -25 0 -7 3 -2 5 12 5 14 0 19 -2 13 -5z m133 -31 c-21 -2 -42 0 -47 5
-4 4 13 6 39 3 l47 -5 -39 -3z m-603 1 c-13 -2 -33 -2 -45 0 -13 2 -3 4 22 4
25 0 35 -2 23 -4z m1964 -45 c-3 -8 -6 -5 -6 6 -1 11 2 17 5 13 3 -3 4 -12 1
-19z m-3120 -20 c-3 -8 -6 -5 -6 6 -1 11 2 17 5 13 3 -3 4 -12 1 -19z m1376
-75 c-7 -2 -19 -2 -25 0 -7 3 -2 5 12 5 14 0 19 -2 13 -5z m175 0 c-10 -2 -26
-2 -35 0 -10 3 -2 5 17 5 19 0 27 -2 18 -5z m-221 -9 c-3 -3 -12 -4 -19 -1 -8
3 -5 6 6 6 11 1 17 -2 13 -5z m356 -21 c-7 -2 -19 -2 -25 0 -7 3 -2 5 12 5 14
0 19 -2 13 -5z m-448 -13 c8 -13 -5 -13 -25 0 -13 8 -13 10 2 10 9 0 20 -4 23
-10z m-1361 -106 c3 -8 2 -12 -4 -9 -6 3 -10 10 -10 16 0 14 7 11 14 -7z
m6594 -517 l77 -3 -82 -2 -83 -2 2 273 3 272 2 -267 3 -267 78 -4z m-5021 477
c-3 -3 -12 -4 -19 -1 -8 3 -5 6 6 6 11 1 17 -2 13 -5z m-1513 -70 c3 -8 2 -12
-4 -9 -6 3 -10 10 -10 16 0 14 7 11 14 -7z m1569 -191 c-7 -2 -19 -2 -25 0 -7
3 -2 5 12 5 14 0 19 -2 13 -5z m370 -130 c-7 -2 -19 -2 -25 0 -7 3 -2 5 12 5
14 0 19 -2 13 -5z m-730 -30 c-7 -2 -21 -2 -30 0 -10 3 -4 5 12 5 17 0 24 -2
18 -5z m640 0 c-7 -2 -19 -2 -25 0 -7 3 -2 5 12 5 14 0 19 -2 13 -5z m-520
-30 c-7 -2 -19 -2 -25 0 -7 3 -2 5 12 5 14 0 19 -2 13 -5z m1075 -13 c-7 -10
-14 -18 -15 -16 -6 6 9 36 18 36 5 0 4 -9 -3 -20z m3645 -17 c-29 -2 -77 -2
-105 0 -29 2 -6 3 52 3 58 0 81 -1 53 -3z m594 1 c-3 -3 -12 -4 -19 -1 -8 3
-5 6 6 6 11 1 17 -2 13 -5z m1036 -1 c-29 -2 -77 -2 -105 0 -29 2 -6 3 52 3
58 0 81 -1 53 -3z m415 0 c-26 -2 -71 -2 -100 0 -29 2 -8 3 47 3 55 0 79 -1
53 -3z m550 0 c-27 -2 -69 -2 -95 0 -27 2 -5 3 47 3 52 0 74 -1 48 -3z m-8011
-45 c-3 -7 -5 -2 -5 12 0 14 2 19 5 13 2 -7 2 -19 0 -25z m1760 -30 c-3 -7 -5
-2 -5 12 0 14 2 19 5 13 2 -7 2 -19 0 -25z m-1397 -802 c0 -79 4 -137 10 -141
6 -3 10 -2 10 3 0 5 9 20 21 33 17 20 31 24 92 27 62 3 77 1 107 -20 19 -13
45 -43 58 -68 20 -41 22 -57 22 -232 l0 -188 -60 0 -60 0 0 179 0 178 -26 27
c-31 31 -86 35 -123 10 -42 -30 -51 -71 -51 -239 l0 -156 -57 3 -58 3 -3 358
-2 357 60 0 60 0 0 -134z m1678 -86 c-2 -142 1 -220 7 -219 6 0 46 48 91 107
l80 107 59 3 c32 2 61 -1 66 -5 4 -4 -26 -46 -67 -93 -100 -116 -98 -110 -66
-156 41 -60 152 -235 152 -240 0 -3 -30 -4 -67 -2 l-67 3 -57 93 c-31 50 -58
95 -62 98 -3 3 -19 -9 -36 -28 -28 -30 -30 -39 -31 -101 l0 -68 -57 3 -58 3
-3 358 -2 357 60 0 61 0 -3 -220z m1202 80 c0 -87 4 -140 10 -140 6 0 10 4 10
8 0 5 9 20 21 33 18 21 31 24 98 27 76 4 79 3 115 -28 63 -56 67 -73 64 -286
l-3 -189 -57 -3 -58 -3 0 179 0 179 -26 27 c-31 30 -86 35 -122 10 -42 -29
-52 -74 -52 -240 l0 -154 -55 0 -55 0 0 360 0 360 55 0 55 0 0 -140z m6620
-152 c0 -161 3 -303 6 -315 4 -16 14 -23 30 -23 22 0 24 -4 24 -50 l0 -50 -56
0 c-48 0 -59 4 -85 29 l-29 29 0 336 0 336 55 0 55 0 0 -292z m677 152 c-2
-77 -2 -140 0 -140 3 0 19 16 37 35 32 34 36 35 104 35 66 0 74 -2 108 -32 59
-52 64 -74 64 -288 l0 -190 -55 0 -55 0 0 159 c0 212 -16 251 -104 251 -25 0
-43 -8 -64 -29 -35 -35 -40 -71 -40 -251 l0 -125 -56 -3 -56 -3 0 361 0 360
60 0 60 0 -3 -140z m-10581 114 c27 -9 67 -30 89 -46 44 -32 100 -107 88 -119
-5 -4 -27 -14 -51 -22 -42 -15 -44 -14 -68 11 -13 15 -24 29 -24 33 0 3 -18
16 -41 28 -34 19 -52 23 -104 19 -53 -3 -71 -9 -102 -34 -21 -17 -49 -51 -63
-75 -22 -39 -25 -56 -25 -139 0 -78 4 -102 23 -137 73 -139 283 -145 357 -9
11 18 12 18 58 -2 26 -11 47 -27 47 -34 0 -25 -87 -113 -141 -143 -49 -27 -63
-30 -144 -30 -112 0 -161 21 -231 97 -68 76 -89 136 -89 263 0 87 4 107 26
156 75 161 237 235 395 183z m5321 -6 c29 -27 29 -57 2 -92 -24 -31 -72 -35
-101 -9 -23 20 -24 80 -1 105 22 25 71 23 100 -4z m1751 2 c26 -25 30 -92 8
-143 -14 -35 -69 -87 -91 -87 -24 0 -24 38 1 61 30 28 30 36 -1 65 -47 43 -24
124 35 124 14 0 36 -9 48 -20z m-2105 -19 c80 -49 122 -151 98 -239 -15 -59
-54 -119 -86 -134 -13 -6 -26 -16 -29 -23 -2 -7 18 -49 45 -95 58 -97 99 -169
99 -175 0 -3 -28 -5 -63 -5 l-62 0 -34 63 c-19 34 -52 92 -74 130 l-39 67 -64
0 -64 0 0 -130 0 -130 -55 0 -55 0 0 343 c0 189 3 347 8 351 4 5 81 6 172 4
152 -3 168 -5 203 -27z m3098 17 c0 -7 1 -69 2 -138 l2 -125 165 0 165 0 2
125 c1 69 2 131 3 138 0 8 18 12 55 12 l55 0 0 -350 0 -351 -56 3 -56 3 1 145
c1 80 -3 151 -7 158 -6 9 -47 12 -168 10 l-159 -3 -1 -55 c-1 -30 -2 -101 -3
-157 l-1 -103 -55 0 -55 0 0 350 0 350 55 0 c37 0 55 -4 56 -12z m-5141 -128
l0 -60 60 0 60 0 0 -47 0 -48 -57 0 -58 0 -3 -134 c-2 -126 -1 -135 19 -158
16 -16 34 -23 61 -23 l38 0 0 -45 c0 -40 -3 -45 -26 -51 -52 -13 -123 1 -155
32 -41 39 -52 89 -53 244 l-1 135 -37 3 c-38 3 -38 4 -38 48 l0 44 41 0 40 0
-1 53 c-1 28 -1 55 -1 60 1 4 26 7 56 7 l55 0 0 -60z m7300 0 l0 -60 60 0 60
0 0 -45 0 -44 -57 -3 -58 -3 -3 -137 c-2 -127 -1 -139 18 -158 13 -13 33 -20
60 -20 l40 0 0 -44 c0 -50 -8 -56 -78 -56 -63 0 -112 27 -137 76 -16 33 -20
64 -23 192 l-4 153 -27 -3 c-25 -3 -26 0 -29 45 -3 46 -3 47 27 47 31 0 31 1
31 53 0 30 3 57 7 60 3 4 30 7 60 7 l53 0 0 -60z m-9030 -70 c73 -37 118 -127
116 -230 l-1 -45 -172 -3 c-110 -1 -173 -6 -173 -13 0 -24 33 -71 63 -89 54
-33 124 -26 180 19 15 13 21 11 47 -14 35 -33 37 -43 13 -62 -76 -61 -199 -81
-278 -44 -137 62 -181 276 -86 416 41 61 91 85 179 85 53 0 83 -5 112 -20z
m585 -17 c22 -17 48 -45 58 -62 l18 -31 -47 -20 -47 -20 -32 37 c-27 32 -39
38 -72 38 -81 0 -127 -59 -127 -165 0 -74 19 -117 64 -144 50 -29 120 -13 154
36 14 20 18 20 55 9 22 -6 43 -15 45 -20 8 -13 -34 -70 -77 -105 -36 -29 -44
-31 -120 -31 -64 0 -89 4 -112 19 -92 60 -125 122 -125 236 0 115 34 185 115
235 36 23 49 25 125 23 79 -3 89 -5 125 -35z m2300 14 c59 -33 94 -91 107
-174 17 -108 26 -103 -173 -103 l-171 0 6 -27 c4 -16 23 -43 43 -60 31 -28 44
-33 88 -33 40 0 61 6 90 26 l38 26 30 -31 c35 -35 31 -45 -38 -90 -35 -23 -50
-26 -127 -26 -80 0 -89 2 -129 30 -24 17 -57 53 -74 80 -26 42 -30 60 -34 132
-5 122 36 210 117 253 55 29 173 27 227 -3z m2256 -5 c63 -41 99 -110 102
-199 l2 -68 -174 -3 -173 -2 7 -28 c21 -85 132 -119 217 -66 l41 26 30 -30
c35 -36 31 -47 -38 -90 -48 -30 -152 -41 -210 -22 -51 17 -111 73 -136 129
-33 71 -30 185 5 255 49 97 97 126 207 126 65 0 81 -4 120 -28z m513 -19 c-8
-61 -7 -59 -52 -66 -41 -7 -85 -46 -97 -86 -4 -14 -9 -77 -10 -140 -4 -191 3
-171 -60 -171 l-55 0 0 250 0 250 49 0 50 0 3 -42 3 -43 30 42 c33 46 40 50
103 52 l43 1 -7 -47z m632 26 c64 -30 71 -44 49 -85 -21 -40 -27 -41 -67 -13
-68 49 -170 27 -155 -33 5 -19 19 -29 52 -41 25 -9 66 -24 91 -33 79 -28 114
-87 101 -169 -8 -47 -34 -80 -86 -106 -61 -31 -168 -24 -229 15 -24 15 -45 33
-48 40 -4 11 32 86 41 86 2 0 24 -13 48 -30 71 -47 167 -37 167 18 0 28 -42
59 -90 67 -55 9 -117 41 -135 69 -19 29 -26 110 -13 148 6 16 29 43 51 59 35
25 49 29 110 29 51 0 83 -6 113 -21z m1529 -2 c70 -40 105 -113 105 -219 l0
-58 -176 0 -175 0 7 -22 c29 -92 131 -125 222 -73 l43 25 29 -32 c28 -31 29
-33 12 -51 -39 -43 -93 -62 -182 -62 -90 0 -117 10 -168 63 -115 120 -82 365
60 435 52 26 173 23 223 -6z m545 3 c23 -12 52 -39 68 -63 27 -42 27 -44 30
-235 l4 -193 -58 3 c-52 3 -59 6 -64 27 -5 22 -6 23 -20 6 -39 -47 -159 -61
-218 -25 -100 61 -96 204 8 264 27 16 52 21 113 20 45 0 82 -5 89 -12 20 -20
28 -14 28 22 0 52 -16 83 -51 102 -46 23 -103 13 -143 -25 l-32 -31 -27 28
c-33 34 -34 52 -4 79 44 40 80 52 160 53 59 0 87 -5 117 -20z m-4230 -240 l0
-250 -55 0 -55 0 0 243 c0 134 3 247 7 250 3 4 28 7 55 7 l48 0 0 -250z m297
69 l60 -182 59 179 59 179 64 3 c58 3 63 1 56 -15 -11 -26 -29 -75 -68 -183
-19 -52 -52 -141 -73 -197 l-38 -103 -58 0 c-53 0 -59 2 -72 28 -7 15 -17 42
-21 59 -3 18 -11 35 -16 38 -5 4 -9 14 -9 23 0 9 -6 29 -14 44 -8 15 -17 40
-21 57 -4 17 -11 33 -16 36 -5 4 -9 14 -9 23 0 9 -7 30 -15 46 -8 15 -15 33
-15 40 -1 6 -9 29 -20 51 -10 22 -16 43 -14 47 3 5 31 8 63 8 l58 0 60 -181z"/>
<path d="M9375 4359 c-39 -11 -91 -61 -117 -113 -29 -57 -29 -186 0 -242 43
-83 108 -124 197 -124 167 0 271 152 221 323 -38 130 -165 196 -301 156z"/>
<path d="M5550 4702 c-6 -2 -10 -76 -10 -188 l0 -184 145 0 c133 0 148 2 179
22 70 46 101 136 77 224 -13 50 -73 112 -115 119 -37 6 -262 11 -276 7z"/>
<path d="M6582 4073 c-67 -33 -90 -99 -57 -163 24 -46 52 -60 123 -60 111 0
181 55 190 151 l5 49 -44 20 c-56 25 -169 27 -217 3z"/>
<path d="M8382 4370 c-58 -12 -91 -34 -132 -87 -32 -43 -34 -51 -38 -139 -4
-82 -2 -99 18 -136 45 -89 106 -128 200 -128 167 0 268 160 214 339 -18 62
-87 136 -134 145 -65 13 -87 14 -128 6z"/>
<path d="M10366 4386 c-50 -19 -93 -60 -117 -115 -10 -24 -19 -45 -19 -47 0
-3 91 -3 203 -2 196 3 202 4 199 23 -18 111 -153 183 -266 141z"/>
<path d="M6630 1150 l0 -120 93 0 c102 0 126 9 152 60 29 55 12 130 -37 164
-16 12 -47 16 -115 16 l-93 0 0 -120z"/>
<path d="M2974 1080 c-28 -11 -74 -67 -74 -91 0 -18 8 -19 120 -19 132 0 135
2 104 61 -24 47 -96 71 -150 49z"/>
<path d="M5854 1080 c-28 -11 -74 -67 -74 -91 0 -18 8 -19 120 -19 108 0 120
2 120 18 -2 69 -95 121 -166 92z"/>
<path d="M8092 1073 c-33 -16 -62 -57 -62 -88 0 -13 18 -15 120 -15 132 0 135
2 103 59 -19 33 -67 61 -105 61 -12 0 -38 -8 -56 -17z"/>
<path d="M10762 1070 c-27 -17 -62 -70 -62 -95 0 -3 56 -5 125 -5 139 0 142 2
102 61 -41 61 -105 76 -165 39z"/>
<path d="M11320 881 c-31 -9 -51 -47 -43 -81 9 -40 32 -52 92 -47 44 3 59 9
78 31 27 32 30 72 6 85 -26 13 -104 21 -133 12z"/>
</g>
</svg>
